<mxfile host="app.diagrams.net" agent="Mozilla/5.0 (Windows NT 10.0; Win64; x64) AppleWebKit/537.36 (KHTML, like Gecko) Chrome/136.0.0.0 Safari/537.36" version="26.2.14">
  <diagram name="페이지-1" id="ulCBWIR0Z1ZVu1bg1GXx">
    <mxGraphModel dx="2328" dy="782" grid="1" gridSize="10" guides="1" tooltips="1" connect="1" arrows="1" fold="1" page="1" pageScale="1" pageWidth="827" pageHeight="1169" math="0" shadow="0">
      <root>
        <mxCell id="0" />
        <mxCell id="1" parent="0" />
        <mxCell id="KjIlMTtiM5jC9DfCgxzV-48" value="OpenSearch" style="fillColor=none;strokeColor=#DD3522;verticalAlign=top;fontStyle=0;fontColor=#DD3522;whiteSpace=wrap;html=1;" vertex="1" parent="1">
          <mxGeometry x="-270" y="167" width="560" height="430" as="geometry" />
        </mxCell>
        <mxCell id="KjIlMTtiM5jC9DfCgxzV-4" value="OpenSearch" style="points=[];aspect=fixed;html=1;align=center;shadow=0;dashed=0;fillColor=#FF6A00;strokeColor=none;shape=mxgraph.alibaba_cloud.opensearch;labelPosition=center;verticalLabelPosition=bottom;verticalAlign=top;" vertex="1" parent="1">
          <mxGeometry x="150" y="205" width="73.36" height="73" as="geometry" />
        </mxCell>
        <mxCell id="KjIlMTtiM5jC9DfCgxzV-6" value="Dashboard" style="sketch=0;outlineConnect=0;fontColor=#232F3E;gradientColor=none;fillColor=#8C4FFF;strokeColor=none;dashed=0;verticalLabelPosition=bottom;verticalAlign=top;align=center;html=1;fontSize=12;fontStyle=0;aspect=fixed;pointerEvents=1;shape=mxgraph.aws4.opensearch_dashboards;" vertex="1" parent="1">
          <mxGeometry x="147.68" y="507" width="83.8" height="63.39" as="geometry" />
        </mxCell>
        <mxCell id="KjIlMTtiM5jC9DfCgxzV-7" value="Ingest Pipeline" style="sketch=0;outlineConnect=0;fontColor=#232F3E;gradientColor=none;fillColor=#8C4FFF;strokeColor=none;dashed=0;verticalLabelPosition=bottom;verticalAlign=top;align=center;html=1;fontSize=12;fontStyle=0;aspect=fixed;pointerEvents=1;shape=mxgraph.aws4.opensearch_ingestion;" vertex="1" parent="1">
          <mxGeometry x="-260" y="327" width="78" height="78" as="geometry" />
        </mxCell>
        <mxCell id="KjIlMTtiM5jC9DfCgxzV-8" value="RDS Metrics S3" style="sketch=0;points=[[0,0,0],[0.25,0,0],[0.5,0,0],[0.75,0,0],[1,0,0],[0,1,0],[0.25,1,0],[0.5,1,0],[0.75,1,0],[1,1,0],[0,0.25,0],[0,0.5,0],[0,0.75,0],[1,0.25,0],[1,0.5,0],[1,0.75,0]];outlineConnect=0;fontColor=#232F3E;fillColor=#7AA116;strokeColor=#ffffff;dashed=0;verticalLabelPosition=bottom;verticalAlign=top;align=center;html=1;fontSize=12;fontStyle=0;aspect=fixed;shape=mxgraph.aws4.resourceIcon;resIcon=mxgraph.aws4.s3;" vertex="1" parent="1">
          <mxGeometry x="-580" y="40" width="78" height="78" as="geometry" />
        </mxCell>
        <mxCell id="KjIlMTtiM5jC9DfCgxzV-12" value="CloudWatch" style="sketch=0;points=[[0,0,0],[0.25,0,0],[0.5,0,0],[0.75,0,0],[1,0,0],[0,1,0],[0.25,1,0],[0.5,1,0],[0.75,1,0],[1,1,0],[0,0.25,0],[0,0.5,0],[0,0.75,0],[1,0.25,0],[1,0.5,0],[1,0.75,0]];points=[[0,0,0],[0.25,0,0],[0.5,0,0],[0.75,0,0],[1,0,0],[0,1,0],[0.25,1,0],[0.5,1,0],[0.75,1,0],[1,1,0],[0,0.25,0],[0,0.5,0],[0,0.75,0],[1,0.25,0],[1,0.5,0],[1,0.75,0]];outlineConnect=0;fontColor=#232F3E;fillColor=#E7157B;strokeColor=#ffffff;dashed=0;verticalLabelPosition=bottom;verticalAlign=top;align=center;html=1;fontSize=12;fontStyle=0;aspect=fixed;shape=mxgraph.aws4.resourceIcon;resIcon=mxgraph.aws4.cloudwatch_2;" vertex="1" parent="1">
          <mxGeometry x="-800" y="202.5" width="78" height="78" as="geometry" />
        </mxCell>
        <mxCell id="KjIlMTtiM5jC9DfCgxzV-13" value="Metrics" style="sketch=0;outlineConnect=0;fontColor=#232F3E;gradientColor=none;fillColor=#E7157B;strokeColor=none;dashed=0;verticalLabelPosition=bottom;verticalAlign=top;align=center;html=1;fontSize=12;fontStyle=0;aspect=fixed;pointerEvents=1;shape=mxgraph.aws4.cloudwatch_metrics_insights;" vertex="1" parent="1">
          <mxGeometry x="-799.5" y="40" width="77" height="78" as="geometry" />
        </mxCell>
        <mxCell id="KjIlMTtiM5jC9DfCgxzV-14" value="CloudWatch Stream" style="sketch=0;outlineConnect=0;fontColor=#232F3E;gradientColor=none;fillColor=#232F3D;strokeColor=none;dashed=0;verticalLabelPosition=bottom;verticalAlign=top;align=center;html=1;fontSize=12;fontStyle=0;aspect=fixed;pointerEvents=1;shape=mxgraph.aws4.data_stream;" vertex="1" parent="1">
          <mxGeometry x="-677" y="118" width="78" height="78" as="geometry" />
        </mxCell>
        <mxCell id="KjIlMTtiM5jC9DfCgxzV-17" value="Lambda" style="sketch=0;points=[[0,0,0],[0.25,0,0],[0.5,0,0],[0.75,0,0],[1,0,0],[0,1,0],[0.25,1,0],[0.5,1,0],[0.75,1,0],[1,1,0],[0,0.25,0],[0,0.5,0],[0,0.75,0],[1,0.25,0],[1,0.5,0],[1,0.75,0]];outlineConnect=0;fontColor=#232F3E;fillColor=#ED7100;strokeColor=#ffffff;dashed=0;verticalLabelPosition=bottom;verticalAlign=top;align=center;html=1;fontSize=12;fontStyle=0;aspect=fixed;shape=mxgraph.aws4.resourceIcon;resIcon=mxgraph.aws4.lambda;" vertex="1" parent="1">
          <mxGeometry x="-430" y="40" width="78" height="78" as="geometry" />
        </mxCell>
        <mxCell id="KjIlMTtiM5jC9DfCgxzV-28" value="EC2 Metrics S3" style="sketch=0;points=[[0,0,0],[0.25,0,0],[0.5,0,0],[0.75,0,0],[1,0,0],[0,1,0],[0.25,1,0],[0.5,1,0],[0.75,1,0],[1,1,0],[0,0.25,0],[0,0.5,0],[0,0.75,0],[1,0.25,0],[1,0.5,0],[1,0.75,0]];outlineConnect=0;fontColor=#232F3E;fillColor=#7AA116;strokeColor=#ffffff;dashed=0;verticalLabelPosition=bottom;verticalAlign=top;align=center;html=1;fontSize=12;fontStyle=0;aspect=fixed;shape=mxgraph.aws4.resourceIcon;resIcon=mxgraph.aws4.s3;" vertex="1" parent="1">
          <mxGeometry x="-580" y="200" width="78" height="78" as="geometry" />
        </mxCell>
        <mxCell id="KjIlMTtiM5jC9DfCgxzV-29" value="Lambda" style="sketch=0;points=[[0,0,0],[0.25,0,0],[0.5,0,0],[0.75,0,0],[1,0,0],[0,1,0],[0.25,1,0],[0.5,1,0],[0.75,1,0],[1,1,0],[0,0.25,0],[0,0.5,0],[0,0.75,0],[1,0.25,0],[1,0.5,0],[1,0.75,0]];outlineConnect=0;fontColor=#232F3E;fillColor=#ED7100;strokeColor=#ffffff;dashed=0;verticalLabelPosition=bottom;verticalAlign=top;align=center;html=1;fontSize=12;fontStyle=0;aspect=fixed;shape=mxgraph.aws4.resourceIcon;resIcon=mxgraph.aws4.lambda;" vertex="1" parent="1">
          <mxGeometry x="-430" y="200" width="78" height="78" as="geometry" />
        </mxCell>
        <mxCell id="KjIlMTtiM5jC9DfCgxzV-31" value="Application Log S3" style="sketch=0;points=[[0,0,0],[0.25,0,0],[0.5,0,0],[0.75,0,0],[1,0,0],[0,1,0],[0.25,1,0],[0.5,1,0],[0.75,1,0],[1,1,0],[0,0.25,0],[0,0.5,0],[0,0.75,0],[1,0.25,0],[1,0.5,0],[1,0.75,0]];outlineConnect=0;fontColor=#232F3E;fillColor=#7AA116;strokeColor=#ffffff;dashed=0;verticalLabelPosition=bottom;verticalAlign=top;align=center;html=1;fontSize=12;fontStyle=0;aspect=fixed;shape=mxgraph.aws4.resourceIcon;resIcon=mxgraph.aws4.s3;" vertex="1" parent="1">
          <mxGeometry x="-580" y="327" width="78" height="78" as="geometry" />
        </mxCell>
        <mxCell id="KjIlMTtiM5jC9DfCgxzV-32" value="Lambda&lt;br&gt;GeoLite mmdb" style="sketch=0;points=[[0,0,0],[0.25,0,0],[0.5,0,0],[0.75,0,0],[1,0,0],[0,1,0],[0.25,1,0],[0.5,1,0],[0.75,1,0],[1,1,0],[0,0.25,0],[0,0.5,0],[0,0.75,0],[1,0.25,0],[1,0.5,0],[1,0.75,0]];outlineConnect=0;fontColor=#232F3E;fillColor=#ED7100;strokeColor=#ffffff;dashed=0;verticalLabelPosition=bottom;verticalAlign=top;align=center;html=1;fontSize=12;fontStyle=0;aspect=fixed;shape=mxgraph.aws4.resourceIcon;resIcon=mxgraph.aws4.lambda;" vertex="1" parent="1">
          <mxGeometry x="-430" y="327" width="78" height="78" as="geometry" />
        </mxCell>
        <mxCell id="KjIlMTtiM5jC9DfCgxzV-34" value="CloudTrail S3" style="sketch=0;points=[[0,0,0],[0.25,0,0],[0.5,0,0],[0.75,0,0],[1,0,0],[0,1,0],[0.25,1,0],[0.5,1,0],[0.75,1,0],[1,1,0],[0,0.25,0],[0,0.5,0],[0,0.75,0],[1,0.25,0],[1,0.5,0],[1,0.75,0]];outlineConnect=0;fontColor=#232F3E;fillColor=#7AA116;strokeColor=#ffffff;dashed=0;verticalLabelPosition=bottom;verticalAlign=top;align=center;html=1;fontSize=12;fontStyle=0;aspect=fixed;shape=mxgraph.aws4.resourceIcon;resIcon=mxgraph.aws4.s3;" vertex="1" parent="1">
          <mxGeometry x="-580" y="447" width="78" height="78" as="geometry" />
        </mxCell>
        <mxCell id="KjIlMTtiM5jC9DfCgxzV-35" value="Lambda&lt;br&gt;GeoLite mmdb" style="sketch=0;points=[[0,0,0],[0.25,0,0],[0.5,0,0],[0.75,0,0],[1,0,0],[0,1,0],[0.25,1,0],[0.5,1,0],[0.75,1,0],[1,1,0],[0,0.25,0],[0,0.5,0],[0,0.75,0],[1,0.25,0],[1,0.5,0],[1,0.75,0]];outlineConnect=0;fontColor=#232F3E;fillColor=#ED7100;strokeColor=#ffffff;dashed=0;verticalLabelPosition=bottom;verticalAlign=top;align=center;html=1;fontSize=12;fontStyle=0;aspect=fixed;shape=mxgraph.aws4.resourceIcon;resIcon=mxgraph.aws4.lambda;" vertex="1" parent="1">
          <mxGeometry x="-430" y="447" width="78" height="78" as="geometry" />
        </mxCell>
        <mxCell id="KjIlMTtiM5jC9DfCgxzV-38" value="CloudTrail" style="sketch=0;points=[[0,0,0],[0.25,0,0],[0.5,0,0],[0.75,0,0],[1,0,0],[0,1,0],[0.25,1,0],[0.5,1,0],[0.75,1,0],[1,1,0],[0,0.25,0],[0,0.5,0],[0,0.75,0],[1,0.25,0],[1,0.5,0],[1,0.75,0]];points=[[0,0,0],[0.25,0,0],[0.5,0,0],[0.75,0,0],[1,0,0],[0,1,0],[0.25,1,0],[0.5,1,0],[0.75,1,0],[1,1,0],[0,0.25,0],[0,0.5,0],[0,0.75,0],[1,0.25,0],[1,0.5,0],[1,0.75,0]];outlineConnect=0;fontColor=#232F3E;fillColor=#E7157B;strokeColor=#ffffff;dashed=0;verticalLabelPosition=bottom;verticalAlign=top;align=center;html=1;fontSize=12;fontStyle=0;aspect=fixed;shape=mxgraph.aws4.resourceIcon;resIcon=mxgraph.aws4.cloudtrail;" vertex="1" parent="1">
          <mxGeometry x="-800" y="449" width="78" height="78" as="geometry" />
        </mxCell>
        <mxCell id="KjIlMTtiM5jC9DfCgxzV-37" value="Application" style="sketch=0;outlineConnect=0;fontColor=#232F3E;gradientColor=none;strokeColor=#232F3E;fillColor=#ffffff;dashed=0;verticalLabelPosition=bottom;verticalAlign=top;align=center;html=1;fontSize=12;fontStyle=0;aspect=fixed;shape=mxgraph.aws4.resourceIcon;resIcon=mxgraph.aws4.application;" vertex="1" parent="1">
          <mxGeometry x="-800" y="329" width="78" height="78" as="geometry" />
        </mxCell>
        <mxCell id="KjIlMTtiM5jC9DfCgxzV-40" value="Application &lt;br&gt;Index Template" style="sketch=0;outlineConnect=0;fontColor=#232F3E;gradientColor=none;fillColor=#E7157B;strokeColor=none;dashed=0;verticalLabelPosition=bottom;verticalAlign=top;align=center;html=1;fontSize=12;fontStyle=0;aspect=fixed;pointerEvents=1;shape=mxgraph.aws4.template;" vertex="1" parent="1">
          <mxGeometry x="-120" y="327" width="65" height="78" as="geometry" />
        </mxCell>
        <mxCell id="KjIlMTtiM5jC9DfCgxzV-41" value="CloudTrail &lt;br&gt;Index Template" style="sketch=0;outlineConnect=0;fontColor=#232F3E;gradientColor=none;fillColor=#E7157B;strokeColor=none;dashed=0;verticalLabelPosition=bottom;verticalAlign=top;align=center;html=1;fontSize=12;fontStyle=0;aspect=fixed;pointerEvents=1;shape=mxgraph.aws4.template;" vertex="1" parent="1">
          <mxGeometry x="-120" y="457" width="65" height="78" as="geometry" />
        </mxCell>
        <mxCell id="KjIlMTtiM5jC9DfCgxzV-42" value="Openearch&lt;br&gt;Index" style="sketch=0;outlineConnect=0;fontColor=#232F3E;gradientColor=none;fillColor=#8C4FFF;strokeColor=none;dashed=0;verticalLabelPosition=bottom;verticalAlign=top;align=center;html=1;fontSize=12;fontStyle=0;aspect=fixed;pointerEvents=1;shape=mxgraph.aws4.opensearch_service_index;" vertex="1" parent="1">
          <mxGeometry x="10" y="317" width="78" height="78" as="geometry" />
        </mxCell>
        <mxCell id="KjIlMTtiM5jC9DfCgxzV-47" value="kibana" style="shape=image;verticalLabelPosition=bottom;labelBackgroundColor=default;verticalAlign=top;aspect=fixed;imageAspect=0;editableCssRules=.*;image=data:image/svg+xml,PHN2ZyB4bWxuczp4bGluaz0iaHR0cDovL3d3dy53My5vcmcvMTk5OS94bGluayIgeG1sbnM9Imh0dHA6Ly93d3cudzMub3JnLzIwMDAvc3ZnIiBwcmVzZXJ2ZUFzcGVjdFJhdGlvPSJ4TWlkWU1pZCIgdmVyc2lvbj0iMS4xIiB2aWV3Qm94PSItMS4yNzg5NzY5MjQzNjgxODAzZS0xMyAwIDI1NiAzNDEuMDA5NTUyMDAxOTUzMSIgaGVpZ2h0PSI3OTcuNjgzMTYyNTc3NjY4MSIgd2lkdGg9IjU5OC44MzA0MDkzNTY3MjUxIj4mI3hhOyAgICA8Zz4mI3hhOwkJCQk8cGF0aCBmaWxsPSIjMDA5QjkwIiBkPSJNMCwzMDYuOTI5NDMxIEwwLDM0MC45NDE1MyBMMTUuOTg1Njg2NCwzNDAuOTQxNTMgTDE1Ni4zMTk2MDYsMTcyLjcxNzY4OSBDMTQ2LjU4ODYzNSwxNjYuMzkyOTk3IDEzNi40NTQwMzEsMTYwLjcxMjE2NiAxMjUuOTgwODE0LDE1NS43MTE2NCBMMCwzMDYuOTI5NDMxIFoiPiYjeGE7JiN4YTs8L3BhdGg+JiN4YTsJCQkJPHBhdGggZmlsbD0iIzQwQkVCMCIgZD0iTTE1Ni4zMjQxNCwxNzIuNzE3Njg5IEwxNS45MjIxOTU3LDM0MS4wMDk1NTQgTDI1NS41NzE0NDQsMzQxLjAwOTU1NCBDMjU1LjU3MTQ0NCwyNzIuNDQxMTYzIDIxNi42NjE2MDMsMjExLjQ5MTQ4MiAxNTYuMzI0MTQsMTcyLjcxNzY4OSBaIj4mI3hhOyYjeGE7PC9wYXRoPiYjeGE7CQkJCTxwb2x5Z29uIHBvaW50cz0iLTUuMjQwMjUyNjhlLTE0IDAgLTEuMjc4OTc2OTJlLTEzIDMwNy40NDUzNjggMjU2IDAiIGZpbGw9IiNFRjUwOTgiPiYjeGE7JiN4YTs8L3BvbHlnb24+JiN4YTsJCQkJPHBhdGggZmlsbD0iIzM1MzUzNSIgZD0iTTAuMDY4MTg4NjUwNCwzMDcuMzM5MjA5IEwxMjYuMjQzMTY0LDE1NS44NDUxMzMgQzg2LjY5MzIzNDIsMTM3LjM3MTkzNCA0My42NTEwNzc3LDEyNy44MDQ0NDYgMCwxMjguMDAzMDU4IEwwLjA2ODE4ODY1MDQsMzA3LjMzOTIwOSBaIj4mI3hhOyYjeGE7PC9wYXRoPiYjeGE7CQk8L2c+JiN4YTs8L3N2Zz4=;" vertex="1" parent="1">
          <mxGeometry x="155.8" y="347" width="67.56" height="90" as="geometry" />
        </mxCell>
        <mxCell id="KjIlMTtiM5jC9DfCgxzV-51" value="" style="endArrow=classic;html=1;rounded=0;" edge="1" parent="1">
          <mxGeometry width="50" height="50" relative="1" as="geometry">
            <mxPoint x="-611" y="110" as="sourcePoint" />
            <mxPoint x="-581" y="80" as="targetPoint" />
            <Array as="points">
              <mxPoint x="-611" y="80" />
            </Array>
          </mxGeometry>
        </mxCell>
        <mxCell id="KjIlMTtiM5jC9DfCgxzV-52" value="" style="endArrow=classic;html=1;rounded=0;" edge="1" parent="1">
          <mxGeometry width="50" height="50" relative="1" as="geometry">
            <mxPoint x="-610" y="224" as="sourcePoint" />
            <mxPoint x="-580" y="254" as="targetPoint" />
            <Array as="points">
              <mxPoint x="-610" y="254" />
            </Array>
          </mxGeometry>
        </mxCell>
        <mxCell id="KjIlMTtiM5jC9DfCgxzV-53" value="" style="endArrow=classic;html=1;rounded=0;" edge="1" parent="1">
          <mxGeometry width="50" height="50" relative="1" as="geometry">
            <mxPoint x="-717" y="367" as="sourcePoint" />
            <mxPoint x="-597" y="367" as="targetPoint" />
          </mxGeometry>
        </mxCell>
        <mxCell id="KjIlMTtiM5jC9DfCgxzV-54" value="" style="endArrow=classic;html=1;rounded=0;" edge="1" parent="1">
          <mxGeometry width="50" height="50" relative="1" as="geometry">
            <mxPoint x="-717" y="486" as="sourcePoint" />
            <mxPoint x="-599" y="485.65999999999997" as="targetPoint" />
          </mxGeometry>
        </mxCell>
        <mxCell id="KjIlMTtiM5jC9DfCgxzV-55" value="" style="endArrow=classic;html=1;rounded=0;" edge="1" parent="1">
          <mxGeometry width="50" height="50" relative="1" as="geometry">
            <mxPoint x="-710" y="77" as="sourcePoint" />
            <mxPoint x="-670" y="107" as="targetPoint" />
            <Array as="points">
              <mxPoint x="-670" y="77" />
            </Array>
          </mxGeometry>
        </mxCell>
        <mxCell id="KjIlMTtiM5jC9DfCgxzV-56" value="" style="endArrow=classic;html=1;rounded=0;" edge="1" parent="1">
          <mxGeometry width="50" height="50" relative="1" as="geometry">
            <mxPoint x="-760" y="197" as="sourcePoint" />
            <mxPoint x="-760" y="147" as="targetPoint" />
          </mxGeometry>
        </mxCell>
        <mxCell id="KjIlMTtiM5jC9DfCgxzV-57" value="" style="endArrow=classic;html=1;rounded=0;" edge="1" parent="1">
          <mxGeometry width="50" height="50" relative="1" as="geometry">
            <mxPoint x="-500" y="79.51999999999998" as="sourcePoint" />
            <mxPoint x="-440" y="79.51999999999998" as="targetPoint" />
          </mxGeometry>
        </mxCell>
        <mxCell id="KjIlMTtiM5jC9DfCgxzV-58" value="" style="endArrow=classic;html=1;rounded=0;" edge="1" parent="1">
          <mxGeometry width="50" height="50" relative="1" as="geometry">
            <mxPoint x="-500" y="238.76" as="sourcePoint" />
            <mxPoint x="-440" y="238.76" as="targetPoint" />
          </mxGeometry>
        </mxCell>
        <mxCell id="KjIlMTtiM5jC9DfCgxzV-59" value="" style="endArrow=classic;html=1;rounded=0;" edge="1" parent="1">
          <mxGeometry width="50" height="50" relative="1" as="geometry">
            <mxPoint x="-500" y="365.76" as="sourcePoint" />
            <mxPoint x="-440" y="365.76" as="targetPoint" />
          </mxGeometry>
        </mxCell>
        <mxCell id="KjIlMTtiM5jC9DfCgxzV-60" value="" style="endArrow=classic;html=1;rounded=0;" edge="1" parent="1">
          <mxGeometry width="50" height="50" relative="1" as="geometry">
            <mxPoint x="-500" y="485.76" as="sourcePoint" />
            <mxPoint x="-440" y="485.76" as="targetPoint" />
          </mxGeometry>
        </mxCell>
        <mxCell id="KjIlMTtiM5jC9DfCgxzV-68" value="" style="endArrow=classic;html=1;rounded=0;" edge="1" parent="1">
          <mxGeometry width="50" height="50" relative="1" as="geometry">
            <mxPoint x="-340" y="486" as="sourcePoint" />
            <mxPoint x="-149.85" y="485.83000000000004" as="targetPoint" />
          </mxGeometry>
        </mxCell>
        <mxCell id="KjIlMTtiM5jC9DfCgxzV-69" value="" style="endArrow=classic;html=1;rounded=0;" edge="1" parent="1">
          <mxGeometry width="50" height="50" relative="1" as="geometry">
            <mxPoint x="-340" y="367" as="sourcePoint" />
            <mxPoint x="-280" y="366" as="targetPoint" />
          </mxGeometry>
        </mxCell>
        <mxCell id="KjIlMTtiM5jC9DfCgxzV-70" value="" style="endArrow=classic;html=1;rounded=0;" edge="1" parent="1">
          <mxGeometry width="50" height="50" relative="1" as="geometry">
            <mxPoint x="-170" y="365.79999999999995" as="sourcePoint" />
            <mxPoint x="-130" y="365.79999999999995" as="targetPoint" />
          </mxGeometry>
        </mxCell>
        <mxCell id="KjIlMTtiM5jC9DfCgxzV-71" value="" style="endArrow=classic;html=1;rounded=0;" edge="1" parent="1">
          <mxGeometry width="50" height="50" relative="1" as="geometry">
            <mxPoint x="-40" y="365.79999999999995" as="sourcePoint" />
            <mxPoint y="365.79999999999995" as="targetPoint" />
          </mxGeometry>
        </mxCell>
        <mxCell id="KjIlMTtiM5jC9DfCgxzV-83" value="FGAC Role" style="sketch=0;outlineConnect=0;fontColor=#232F3E;gradientColor=none;fillColor=#8C4FFF;strokeColor=none;dashed=0;verticalLabelPosition=bottom;verticalAlign=top;align=center;html=1;fontSize=12;fontStyle=0;aspect=fixed;pointerEvents=1;shape=mxgraph.aws4.network_access_control_list;perimeterSpacing=0;" vertex="1" parent="1">
          <mxGeometry x="-270" y="167" width="78" height="78" as="geometry" />
        </mxCell>
        <mxCell id="KjIlMTtiM5jC9DfCgxzV-84" value="" style="image;aspect=fixed;perimeter=ellipsePerimeter;html=1;align=center;shadow=0;dashed=0;spacingTop=3;image=img/lib/active_directory/database.svg;" vertex="1" parent="1">
          <mxGeometry x="-380" y="377" width="40.54" height="30" as="geometry" />
        </mxCell>
        <mxCell id="KjIlMTtiM5jC9DfCgxzV-86" value="" style="image;aspect=fixed;perimeter=ellipsePerimeter;html=1;align=center;shadow=0;dashed=0;spacingTop=3;image=img/lib/active_directory/database.svg;" vertex="1" parent="1">
          <mxGeometry x="-380" y="497" width="40.54" height="30" as="geometry" />
        </mxCell>
        <mxCell id="KjIlMTtiM5jC9DfCgxzV-87" style="edgeStyle=orthogonalEdgeStyle;rounded=0;orthogonalLoop=1;jettySize=auto;html=1;entryX=-0.005;entryY=0.468;entryDx=0;entryDy=0;entryPerimeter=0;" edge="1" parent="1" source="KjIlMTtiM5jC9DfCgxzV-42" target="KjIlMTtiM5jC9DfCgxzV-4">
          <mxGeometry relative="1" as="geometry" />
        </mxCell>
        <mxCell id="KjIlMTtiM5jC9DfCgxzV-89" value="" style="endArrow=classic;html=1;rounded=0;" edge="1" parent="1">
          <mxGeometry width="50" height="50" relative="1" as="geometry">
            <mxPoint x="189.44" y="307" as="sourcePoint" />
            <mxPoint x="189.44" y="337" as="targetPoint" />
          </mxGeometry>
        </mxCell>
        <mxCell id="KjIlMTtiM5jC9DfCgxzV-90" value="" style="endArrow=classic;html=1;rounded=0;" edge="1" parent="1">
          <mxGeometry width="50" height="50" relative="1" as="geometry">
            <mxPoint x="189.44" y="467" as="sourcePoint" />
            <mxPoint x="189.44" y="497" as="targetPoint" />
          </mxGeometry>
        </mxCell>
        <mxCell id="KjIlMTtiM5jC9DfCgxzV-91" value="" style="endArrow=classic;html=1;rounded=0;" edge="1" parent="1">
          <mxGeometry width="50" height="50" relative="1" as="geometry">
            <mxPoint x="-330" y="87" as="sourcePoint" />
            <mxPoint x="60.54000000000002" y="297" as="targetPoint" />
            <Array as="points">
              <mxPoint x="61" y="87" />
            </Array>
          </mxGeometry>
        </mxCell>
        <mxCell id="KjIlMTtiM5jC9DfCgxzV-92" value="" style="endArrow=none;html=1;rounded=0;" edge="1" parent="1">
          <mxGeometry width="50" height="50" relative="1" as="geometry">
            <mxPoint x="-340" y="247" as="sourcePoint" />
            <mxPoint x="-310" y="87" as="targetPoint" />
            <Array as="points">
              <mxPoint x="-310" y="247" />
            </Array>
          </mxGeometry>
        </mxCell>
      </root>
    </mxGraphModel>
  </diagram>
</mxfile>
